<?xml version="1.0" encoding="UTF-8" standalone="no"?>
<!-- Created with Inkscape (http://www.inkscape.org/) -->

<svg
   xmlns:dc="http://purl.org/dc/elements/1.1/"
   xmlns:cc="http://creativecommons.org/ns#"
   xmlns:rdf="http://www.w3.org/1999/02/22-rdf-syntax-ns#"
   xmlns:svg="http://www.w3.org/2000/svg"
   xmlns="http://www.w3.org/2000/svg"
   xmlns:sodipodi="http://sodipodi.sourceforge.net/DTD/sodipodi-0.dtd"
   xmlns:inkscape="http://www.inkscape.org/namespaces/inkscape"
   width="9.4937658mm"
   height="22.518543mm"
   viewBox="0 0 33.639328 79.790113"
   id="svg7693"
   version="1.1"
   inkscape:version="0.91 r13725"
   sodipodi:docname="pig-tail.svg">
  <defs
     id="defs7695" />
  <sodipodi:namedview
     id="base"
     pagecolor="#ffffff"
     bordercolor="#666666"
     borderopacity="1.0"
     inkscape:pageopacity="0.0"
     inkscape:pageshadow="2"
     inkscape:zoom="0.35"
     inkscape:cx="-362.46605"
     inkscape:cy="-88.676366"
     inkscape:document-units="px"
     inkscape:current-layer="layer1"
     showgrid="false"
     fit-margin-top="0"
     fit-margin-left="0"
     fit-margin-right="0"
     fit-margin-bottom="0"
     inkscape:window-width="1366"
     inkscape:window-height="704"
     inkscape:window-x="0"
     inkscape:window-y="27"
     inkscape:window-maximized="1" />
  <metadata
     id="metadata7698">
    <rdf:RDF>
      <cc:Work
         rdf:about="">
        <dc:format>image/svg+xml</dc:format>
        <dc:type
           rdf:resource="http://purl.org/dc/dcmitype/StillImage" />
        <dc:title></dc:title>
      </cc:Work>
    </rdf:RDF>
  </metadata>
  <g
     inkscape:label="Layer 1"
     inkscape:groupmode="layer"
     id="layer1"
     transform="translate(-228.89462,-363.89572)">
    <path
       style="opacity:1;fill:#fca8de;fill-opacity:0.66842101;fill-rule:nonzero;stroke:#000000;stroke-width:1;stroke-miterlimit:4;stroke-dasharray:none;stroke-dashoffset:0;stroke-opacity:1"
       d="m 229.44641,364.44032 c 0.0301,0.32977 0.0911,0.65687 0.15821,0.98437 0.95566,2.05365 1.73523,4.13851 2.33203,6.25196 0.25034,0.65499 0.47331,1.30981 0.62304,1.96484 0.45005,3.30217 0.42544,2.90505 2.91602,2.39063 4.85133,0.0794 7.41452,3.92774 9.1582,6.54101 -3.87429,0.67088 -7.62572,2.19826 -10.67383,4.70117 0.0938,4.18409 -0.15379,8.48911 -0.82226,13.35938 -0.16742,1.21978 -0.3299,2.38423 -0.4961,3.51953 0.56399,0.93577 1.34962,1.70229 2.49219,2.14258 2.71526,0.28405 5.47552,-0.70974 8.08008,-1.42383 3.09433,-0.96626 4.35809,-4.03757 5.83203,-6.5957 0.83046,-1.23331 1.39614,-2.57254 1.76563,-3.9668 0.88155,0.94172 1.79132,1.84689 2.84375,2.57812 -3.22478,1.65855 -2.86487,5.68567 -3.21289,8.75 1.02124,2.38671 0.36216,5.40343 2.32031,7.67969 l -4.70117,7.47852 c -1.4932,1.56611 -0.95962,2.40736 1.0332,3.00195 0.89371,3.12808 -0.52662,6.41675 -2.20117,9.03125 -0.49669,1.78385 -5.13127,3.15087 -3.32617,4.86328 l 6.42968,-3.01172 c 1.167,0.1258 0.75869,-2.85744 1.51172,-1.41015 0.309,1.39494 1.48644,0.90724 2.52149,0.72656 0.46482,2.08474 -0.10547,5.98554 1.14453,8.69531 l 2.42578,-3.41601 c 0.88242,-1.55384 2.58523,-2.79022 2.55273,-4.69727 0.50794,-5.50411 1.68121,-10.94575 1.87891,-16.47266 -0.0951,-3.16307 0.23295,-6.42371 -0.44531,-9.51953 -0.813,-3.26958 -3.22491,-5.96766 -3.70118,-9.31054 0.46919,-3.6263 -1.07144,-7.08561 -2.68359,-10.23243 -1.1431,-2.13709 -2.6173,-4.60305 -4.72265,-5.89648 -1.86902,-5.9677 -5.53962,-11.66237 -11.09766,-14.75781 -2.79913,-1.40508 -6.74055,-3.69979 -9.93555,-3.94922 z m 13.79297,24.17187 c 0.35258,-0.0215 0.71035,-0.0142 1.07227,0.0234 0.24788,0.11073 0.48919,0.23055 0.72265,0.35938 -0.17228,1.40963 -0.45038,2.81006 -0.75,4.16601 -1.09747,2.80198 -3.51068,5.86133 -6.79101,5.82813 -4.17235,0.40889 -2.71324,-5.25673 -0.375,-6.70508 1.45004,-1.98818 3.65299,-3.52114 6.12109,-3.67188 z"
       id="rect4495"
       inkscape:connector-curvature="0" />
  </g>
</svg>
