<?xml version="1.0" encoding="UTF-8" standalone="no"?>
<!-- Created with Inkscape (http://www.inkscape.org/) -->

<svg
   xmlns:dc="http://purl.org/dc/elements/1.1/"
   xmlns:cc="http://creativecommons.org/ns#"
   xmlns:rdf="http://www.w3.org/1999/02/22-rdf-syntax-ns#"
   xmlns:svg="http://www.w3.org/2000/svg"
   xmlns="http://www.w3.org/2000/svg"
   xmlns:sodipodi="http://sodipodi.sourceforge.net/DTD/sodipodi-0.dtd"
   xmlns:inkscape="http://www.inkscape.org/namespaces/inkscape"
   width="24.59742mm"
   height="56.066353mm"
   viewBox="0 0 87.156212 198.6603"
   id="svg7111"
   version="1.1"
   inkscape:version="0.91 r13725"
   sodipodi:docname="pig-ham.svg">
  <defs
     id="defs7113" />
  <sodipodi:namedview
     id="base"
     pagecolor="#ffffff"
     bordercolor="#666666"
     borderopacity="1.0"
     inkscape:pageopacity="0.0"
     inkscape:pageshadow="2"
     inkscape:zoom="0.35"
     inkscape:cx="-464.99332"
     inkscape:cy="99.330151"
     inkscape:document-units="px"
     inkscape:current-layer="layer1"
     showgrid="false"
     fit-margin-top="0"
     fit-margin-left="0"
     fit-margin-right="0"
     fit-margin-bottom="0"
     inkscape:window-width="1366"
     inkscape:window-height="704"
     inkscape:window-x="0"
     inkscape:window-y="27"
     inkscape:window-maximized="1" />
  <metadata
     id="metadata7116">
    <rdf:RDF>
      <cc:Work
         rdf:about="">
        <dc:format>image/svg+xml</dc:format>
        <dc:type
           rdf:resource="http://purl.org/dc/dcmitype/StillImage" />
        <dc:title></dc:title>
      </cc:Work>
    </rdf:RDF>
  </metadata>
  <g
     inkscape:label="Layer 1"
     inkscape:groupmode="layer"
     id="layer1"
     transform="translate(-331.42189,-433.03205)">
    <path
       inkscape:connector-curvature="0"
       style="opacity:1;fill:#fca8de;fill-opacity:0.66842101;fill-rule:evenodd;stroke:#000000;stroke-width:1px;stroke-linecap:butt;stroke-linejoin:miter;stroke-opacity:1"
       d="m 375.44054,433.69152 -0.0684,0.043 c -0.10663,0.88442 -2.42331,2.82164 -3.72851,3.85742 0.12095,-0.0667 0.0799,-0.019 -0.33008,0.28516 -1.00937,0.74888 -0.49523,0.36978 0.33008,-0.28516 -0.69567,0.38366 -9.09673,6.24482 -13.8125,10.73242 -5.53572,5.26786 -9.73243,10.17774 -9.73243,10.17774 -0.14463,0.0234 -0.14463,0.0234 -0.14463,0.0234 l 0.12696,0.004 c 0,0 -3.39342,4.28572 -6.33985,8.75 -2.81255,4.26145 -6.679,11.78036 -8.57812,20.8418 l -1.17188,9.49414 c -0.24433,5.39768 0.23728,9.11282 0.27149,9.35742 l 0.0508,-0.002 c 0,10e-6 0.25269,1.19959 0.56836,7.57618 0.31568,6.37658 0.69531,12.8789 0.69531,12.8789 0,0 4.92385,5.68251 9.97461,11.42775 5.05076,5.74524 6.81836,10.60742 6.81836,10.60742 0,0 -0.0976,0.0431 -0.10156,0.0449 0.0372,0.0766 0.87947,1.80525 1.74414,2.66992 0.88388,0.88388 5.6189,3.21994 7.19726,5.24024 1.32922,1.7014 5.83348,12.60244 6.40821,14.41601 0.91359,1.51505 3.47536,6.33468 4.19726,9.76367 1.01015,4.79823 2.71576,13.13113 1.26367,19.12891 -1.4521,5.99779 -1.95703,9.15625 -1.95703,9.15625 l -5.61914,5.36524 c 0,0 0.37793,2.96763 -0.88476,3.6621 -1.26269,0.69448 -4.60743,1.07227 -4.60743,1.07227 l -2.90429,5.80859 -5.73828,2.90235 -0.17774,1.96484 5.71485,0.53516 15.71289,-0.53516 2.5,-1.60742 9.64257,-0.89258 0.71485,-4.28515 -7.85742,-0.89258 4.10742,-2.5 c 0,0 1.96456,-6.07115 2.85742,-10.89258 0.89286,-4.82143 0.89258,-10.17969 0.89258,-10.17969 l 2.85754,-10.89265 c 0,0 0.53656,-5.71456 4.82227,-14.10742 4.28571,-8.39286 8.39257,-12.85742 8.39257,-12.85742 l -2.85742,-9.46289 c 0,0 7.67802,-11.96457 13.03516,-22.85743 5.35714,-10.89286 6.25,-17.14286 7.5,-26.25 1.25,-9.10715 1.07226,-16.25139 -0.17774,-24.28711 -1.25,-8.03571 -5,-15.71261 -11.25,-22.85547 -6.25,-7.14286 -7.3217,-7.32171 -16.60742,-14.10742 -9.28571,-6.78572 -13.75,-8.03711 -13.75,-8.03711 z m -9.82226,138.14063 c -0.36481,-0.60496 -0.49206,-0.73367 -0.0957,0.041 0.21925,0.42853 0.20343,0.29892 0.0957,-0.041 z"
       id="path4414"
       sodipodi:nodetypes="cccccscccsccccscsccsscssccscccccccccccsccsccssssscccc" />
  </g>
</svg>
