<?xml version="1.0" encoding="UTF-8" standalone="no"?>
<!-- Created with Inkscape (http://www.inkscape.org/) -->

<svg
   xmlns:dc="http://purl.org/dc/elements/1.1/"
   xmlns:cc="http://creativecommons.org/ns#"
   xmlns:rdf="http://www.w3.org/1999/02/22-rdf-syntax-ns#"
   xmlns:svg="http://www.w3.org/2000/svg"
   xmlns="http://www.w3.org/2000/svg"
   xmlns:sodipodi="http://sodipodi.sourceforge.net/DTD/sodipodi-0.dtd"
   xmlns:inkscape="http://www.inkscape.org/namespaces/inkscape"
   width="26.59478mm"
   height="32.691509mm"
   viewBox="0 0 94.233472 115.83606"
   id="svg4145"
   version="1.1"
   inkscape:version="0.91 r13725"
   sodipodi:docname="pig-head.svg">
  <defs
     id="defs4147" />
  <sodipodi:namedview
     id="base"
     pagecolor="#ffffff"
     bordercolor="#666666"
     borderopacity="1.0"
     inkscape:pageopacity="0.0"
     inkscape:pageshadow="2"
     inkscape:zoom="0.98994949"
     inkscape:cx="-10.638038"
     inkscape:cy="-94.180923"
     inkscape:document-units="px"
     inkscape:current-layer="layer1"
     showgrid="false"
     inkscape:window-width="1366"
     inkscape:window-height="704"
     inkscape:window-x="0"
     inkscape:window-y="27"
     inkscape:window-maximized="1"
     fit-margin-top="0"
     fit-margin-left="0"
     fit-margin-right="0"
     fit-margin-bottom="0" />
  <metadata
     id="metadata4150">
    <rdf:RDF>
      <cc:Work
         rdf:about="">
        <dc:format>image/svg+xml</dc:format>
        <dc:type
           rdf:resource="http://purl.org/dc/dcmitype/StillImage" />
        <dc:title></dc:title>
      </cc:Work>
    </rdf:RDF>
  </metadata>
  <g
     inkscape:label="Layer 1"
     inkscape:groupmode="layer"
     id="layer1"
     transform="translate(-50.026116,-60.158462)">
    <g
       transform="translate(-111.09043,-88.659066)"
       id="g6154">
      <path
         sodipodi:nodetypes="csscsssssscssscscscscssc"
         inkscape:connector-curvature="0"
         id="path4266"
         d="m 163.01337,225.67861 c 0,0 8.19907,0.0987 14.01586,-2.52538 15.1464,-6.83276 21.05283,-14.47435 27.18746,-26.83032 5.39825,-10.87279 9.30431,-18.11621 9.30431,-18.11621 0,0 0.75761,-3.9196 -3.66181,-10.10678 -4.41942,-6.18719 -6.81853,-5.80838 -7.82868,-9.84899 -1.01015,-4.04061 -1.13642,-6.56599 1.38896,-8.33376 2.52538,-1.76776 7.82868,0.75762 13.13198,3.283 5.3033,2.52538 13.63706,9.34391 13.76333,9.34391 0.12627,0 2.39911,-2.65165 9.21764,-6.18718 6.81853,-3.53554 6.43973,-2.65165 6.43973,-2.65165 0,0 6.69226,16.79378 8.20748,24.49619 1.51523,7.70242 0.12627,35.86042 -1.01015,44.19418 -1.13642,8.33376 -2.39911,17.04632 -4.16688,25.63262 -1.76776,8.5863 -3.40926,16.03617 -3.40926,16.03617 0,0 -8.5863,-1.76777 -14.39468,-2.90419 -5.80837,-1.13642 -40.4061,-10.85914 -40.4061,-10.85914 0,0 -9.59645,-1.51523 -14.77348,-1.6415 -5.17703,-0.12626 -2.27284,-2.77791 -2.27284,-2.77791 0,0 -2.27285,-1.51523 -6.69226,-2.65166 -4.41942,-1.13642 -2.27285,-0.50507 -2.27285,-0.50507 0,0 0.12627,-0.88389 -1.26269,-3.03046 -1.38896,-2.14657 -1.76776,-5.05076 -1.89403,-7.70241 -0.12627,-2.65165 1.38896,-6.31346 1.38896,-6.31346 z"
         style="opacity:1;fill:#fca8de;fill-opacity:0.66842101;fill-rule:evenodd;stroke:#000000;stroke-width:1px;stroke-linecap:butt;stroke-linejoin:miter;stroke-opacity:1" />
      <path
         inkscape:connector-curvature="0"
         id="path6143"
         d="m 210.03804,197.32403 15.27855,11.99556"
         style="fill:none;fill-rule:evenodd;stroke:#000000;stroke-width:1px;stroke-linecap:butt;stroke-linejoin:miter;stroke-opacity:1" />
      <path
         transform="matrix(0.78727459,0.61660256,-0.61660256,0.78727459,0,0)"
         d="m 299.28993,28.00819 a 3.2198613,3.2198613 0 0 1 -1.61831,2.793304 3.2198613,3.2198613 0 0 1 -3.2282,-0.01454 3.2198613,3.2198613 0 0 1 -1.59308,-2.807769 l 3.21973,0.02901 z"
         sodipodi:end="3.1506014"
         sodipodi:start="0"
         sodipodi:ry="3.2198613"
         sodipodi:rx="3.2198613"
         sodipodi:cy="28.00819"
         sodipodi:cx="296.07007"
         sodipodi:type="arc"
         id="path6145"
         style="opacity:1;fill:#000000;fill-opacity:1;fill-rule:evenodd;stroke:#000000;stroke-width:1;stroke-miterlimit:4;stroke-dasharray:none;stroke-dashoffset:0;stroke-opacity:1" />
    </g>
  </g>
</svg>
