<?xml version="1.0" encoding="UTF-8" standalone="no"?>
<!-- Generated by IcoMoon.io -->

<svg
   xmlns:dc="http://purl.org/dc/elements/1.1/"
   xmlns:cc="http://creativecommons.org/ns#"
   xmlns:rdf="http://www.w3.org/1999/02/22-rdf-syntax-ns#"
   xmlns:svg="http://www.w3.org/2000/svg"
   xmlns="http://www.w3.org/2000/svg"
   xmlns:sodipodi="http://sodipodi.sourceforge.net/DTD/sodipodi-0.dtd"
   xmlns:inkscape="http://www.inkscape.org/namespaces/inkscape"
   version="1.1"
   width="365.67578"
   height="365.68555"
   viewBox="0 0 365.67578 365.68555"
   id="svg2"
   inkscape:version="0.91 r13725"
   sodipodi:docname="pound.svg">
  <metadata
     id="metadata12">
    <rdf:RDF>
      <cc:Work
         rdf:about="">
        <dc:format>image/svg+xml</dc:format>
        <dc:type
           rdf:resource="http://purl.org/dc/dcmitype/StillImage" />
        <dc:title></dc:title>
      </cc:Work>
    </rdf:RDF>
  </metadata>
  <defs
     id="defs10" />
  <sodipodi:namedview
     pagecolor="#ffffff"
     bordercolor="#666666"
     borderopacity="1"
     objecttolerance="10"
     gridtolerance="10"
     guidetolerance="10"
     inkscape:pageopacity="0"
     inkscape:pageshadow="2"
     inkscape:window-width="1366"
     inkscape:window-height="704"
     id="namedview8"
     showgrid="false"
     fit-margin-top="0"
     fit-margin-left="0"
     fit-margin-right="0"
     fit-margin-bottom="0"
     inkscape:zoom="0.65186406"
     inkscape:cx="0.81468226"
     inkscape:cy="177.56187"
     inkscape:window-x="0"
     inkscape:window-y="27"
     inkscape:window-maximized="1"
     inkscape:current-layer="svg2" />
  <g
     id="g4"
     transform="translate(-73.166141,-73.157141)" />
  <path
     style="opacity:0.98999999;fill:#000000"
     d="M 56.607421,0 C 25.354945,0 0,25.347835 0,56.609375 L 0,309.06055 c 0,31.26895 25.354945,56.625 56.607421,56.625 l 252.458989,0 c 31.25248,0 56.60937,-25.35522 56.60937,-56.625 l 0,-252.451175 C 365.67578,25.347835 340.31972,0 309.06641,0 L 56.607421,0 Z M 211.75195,58.746093 c 20.296,0 34.56022,4.485146 42.82422,9.369146 l -8.26367,34.908201 c -7.117,-4.117001 -18.04325,-7.505861 -32.65625,-7.505861 -27.812,0 -37.95117,18.771031 -37.95117,40.582031 0,12.749 1.91595,22.87548 4.12695,33.77148 l 52.60352,0 0,31.92774 -48.47657,0 c 0.368,11.663 0.36743,22.91783 -2.64257,33.42383 -3.707,12.779 -11.233,23.69492 -21.75,33.04492 l 0,0.77734 105.52343,0 0,37.89649 -164.5039,0 0,-25.17969 c 22.559,-10.517 42.44531,-33.04373 42.44531,-59.67774 0,-7.11699 -0.37033,-13.15987 -1.48633,-20.29687 l -37.54883,0 0,-31.92773 32.29688,0 c -1.915,-10.496 -3.76758,-22.90674 -3.76758,-34.92774 0,-46.183001 32.67556,-76.185547 79.22656,-76.185547 z"
     id="path6"
     inkscape:connector-curvature="0" />
</svg>
