<?xml version="1.0" standalone="no"?>
<!DOCTYPE svg PUBLIC "-//W3C//DTD SVG 20010904//EN"
 "http://www.w3.org/TR/2001/REC-SVG-20010904/DTD/svg10.dtd">
<svg version="1.0" xmlns="http://www.w3.org/2000/svg"
 width="16.000000pt" height="16.000000pt" viewBox="0 0 16.000000 16.000000"
 preserveAspectRatio="xMidYMid meet">
<metadata>
Created by potrace 1.11, written by Peter Selinger 2001-2013
</metadata>
<g transform="translate(0.000000,16.000000) scale(0.004211,-0.004211)"
fill="#000000" stroke="none">
<path d="M1419 2916 c-2 -2 -40 -7 -84 -10 -44 -4 -93 -9 -110 -12 -248 -39
-452 -103 -509 -160 -20 -19 -29 -16 -111 42 -73 50 -153 78 -183 64 -23 -10
-24 -15 -19 -60 5 -38 14 -57 42 -87 57 -59 93 -143 68 -155 -5 -1 -37 -61
-73 -133 -49 -97 -79 -143 -120 -185 -80 -80 -180 -129 -279 -135 -30 -1 -45
-36 -37 -90 8 -64 27 -93 63 -100 18 -3 37 -14 43 -25 11 -20 33 -26 121 -35
31 -3 128 -25 215 -49 160 -44 242 -65 344 -86 30 -6 73 -18 95 -27 22 -8 69
-23 105 -32 52 -13 65 -21 66 -37 2 -46 16 -122 29 -164 20 -61 23 -120 12
-194 -20 -132 -65 -204 -152 -245 -64 -30 -63 -46 0 -60 93 -21 280 -10 355
20 31 12 42 69 14 69 -14 0 -15 7 -10 43 4 23 9 62 12 87 21 203 30 243 81
347 l35 72 52 -6 c76 -9 518 -9 695 0 215 11 265 16 338 36 22 6 72 13 110 14
46 2 90 12 135 30 l66 28 47 -33 c25 -18 52 -46 60 -63 7 -16 30 -66 50 -110
77 -170 78 -342 3 -418 -15 -16 -26 -33 -23 -37 6 -10 -30 -32 -38 -23 -4 3
-16 -11 -28 -31 -12 -20 -35 -44 -51 -52 -49 -26 -29 -39 65 -42 54 -2 108 3
146 13 32 8 71 15 85 15 22 0 26 4 26 30 0 19 -5 30 -12 29 -7 -1 -22 -1 -32
0 -18 1 -18 2 -3 14 18 13 44 105 51 182 6 68 39 202 64 259 12 25 38 71 58
102 37 55 37 56 25 105 -12 44 -11 51 7 76 45 65 141 263 157 329 l19 71 38 0
c59 0 94 20 119 68 28 52 42 50 24 -2 -10 -28 -11 -52 -3 -92 9 -49 7 -56 -18
-94 -17 -26 -23 -42 -15 -45 23 -8 12 -69 -19 -102 -39 -41 -27 -55 24 -29 52
25 56 24 56 -13 0 -59 15 -65 44 -21 20 30 29 62 37 129 12 97 7 197 -10 218
-6 7 -16 40 -22 72 -12 63 -27 98 -56 129 -10 11 -25 36 -33 55 -22 53 -90
116 -149 137 -41 14 -57 26 -76 58 -34 58 -111 134 -201 197 -133 93 -200 120
-339 133 -98 10 -1477 29 -1486 21z m2172 -550 c17 -20 16 -21 -24 -41 -23
-11 -43 -20 -44 -20 0 0 -4 18 -7 39 -10 60 34 73 75 22z m24 -118 c-13 -43
-35 -68 -60 -68 -35 0 -32 32 6 64 39 33 63 35 54 4z"/>
</g>
</svg>
