<?xml version="1.0" encoding="iso-8859-1"?>
<!-- Generator: Adobe Illustrator 16.0.0, SVG Export Plug-In . SVG Version: 6.00 Build 0)  -->
<!DOCTYPE svg PUBLIC "-//W3C//DTD SVG 1.1//EN" "http://www.w3.org/Graphics/SVG/1.1/DTD/svg11.dtd">
<svg version="1.1" id="Capa_1" xmlns="http://www.w3.org/2000/svg" xmlns:xlink="http://www.w3.org/1999/xlink" x="0px" y="0px"
	 width="136.129px" height="136.129px" viewBox="0 0 136.129 136.129" style="enable-background:new 0 0 136.129 136.129;"
	 xml:space="preserve">
<g>
	<path d="M105.318,0H30.82C13.804,0,0,13.804,0,30.82v74.498c0,17.014,13.804,30.812,30.82,30.812h74.498
		c17.013,0,30.811-13.798,30.811-30.812V30.82C136.136,13.804,122.337,0,105.318,0z M87.16,57.159H74.215
		c-0.804-6.546-3.258-19.092-6.144-19.092c-2.887,0-5.344,12.546-6.147,19.092H48.979c-10.333,0-18.706-8.025-18.706-17.926
		s8.373-17.926,18.706-17.926h38.194c10.327,0,18.705,8.025,18.705,17.926S97.5,57.159,87.16,57.159z"/>
</g>
<g>
</g>
<g>
</g>
<g>
</g>
<g>
</g>
<g>
</g>
<g>
</g>
<g>
</g>
<g>
</g>
<g>
</g>
<g>
</g>
<g>
</g>
<g>
</g>
<g>
</g>
<g>
</g>
<g>
</g>
</svg>
